<mxfile host="Electron" agent="Mozilla/5.0 (Windows NT 10.0; Win64; x64) AppleWebKit/537.36 (KHTML, like Gecko) draw.io/27.0.9 Chrome/134.0.6998.205 Electron/35.4.0 Safari/537.36" version="27.0.9">
  <diagram name="第 1 页" id="hHdWbca9_cBhzW1vsPXH">
    <mxGraphModel dx="1213" dy="722" grid="1" gridSize="10" guides="1" tooltips="1" connect="1" arrows="1" fold="1" page="1" pageScale="1" pageWidth="827" pageHeight="1169" math="0" shadow="0">
      <root>
        <mxCell id="0" />
        <mxCell id="1" parent="0" />
        <mxCell id="FGaTPld4qj9GWFZ1uLBO-1" value="Frontend" style="rounded=1;whiteSpace=wrap;html=1;" parent="1" vertex="1">
          <mxGeometry x="70" y="145" width="140" height="115" as="geometry" />
        </mxCell>
        <mxCell id="FGaTPld4qj9GWFZ1uLBO-2" value="Worker" style="rounded=1;whiteSpace=wrap;html=1;" parent="1" vertex="1">
          <mxGeometry x="650" y="145" width="140" height="110" as="geometry" />
        </mxCell>
        <mxCell id="FGaTPld4qj9GWFZ1uLBO-3" value="Backend" style="rounded=1;whiteSpace=wrap;html=1;" parent="1" vertex="1">
          <mxGeometry x="360" y="145" width="150" height="110" as="geometry" />
        </mxCell>
        <mxCell id="FGaTPld4qj9GWFZ1uLBO-7" value="" style="shape=flexArrow;endArrow=classic;html=1;rounded=0;" parent="1" edge="1">
          <mxGeometry width="50" height="50" relative="1" as="geometry">
            <mxPoint x="230" y="184.70999999999998" as="sourcePoint" />
            <mxPoint x="350" y="184.70999999999998" as="targetPoint" />
          </mxGeometry>
        </mxCell>
        <mxCell id="FGaTPld4qj9GWFZ1uLBO-8" value="" style="shape=flexArrow;endArrow=classic;html=1;rounded=0;" parent="1" edge="1">
          <mxGeometry width="50" height="50" relative="1" as="geometry">
            <mxPoint x="340" y="214.70999999999998" as="sourcePoint" />
            <mxPoint x="230" y="214.70999999999998" as="targetPoint" />
          </mxGeometry>
        </mxCell>
        <mxCell id="FGaTPld4qj9GWFZ1uLBO-9" value="" style="shape=flexArrow;endArrow=classic;html=1;rounded=0;" parent="1" edge="1">
          <mxGeometry width="50" height="50" relative="1" as="geometry">
            <mxPoint x="520" y="184.71" as="sourcePoint" />
            <mxPoint x="640" y="184.71" as="targetPoint" />
          </mxGeometry>
        </mxCell>
        <mxCell id="FGaTPld4qj9GWFZ1uLBO-10" value="" style="shape=flexArrow;endArrow=classic;html=1;rounded=0;" parent="1" edge="1">
          <mxGeometry width="50" height="50" relative="1" as="geometry">
            <mxPoint x="630" y="214.71" as="sourcePoint" />
            <mxPoint x="520" y="214.71" as="targetPoint" />
          </mxGeometry>
        </mxCell>
        <mxCell id="FGaTPld4qj9GWFZ1uLBO-11" value="在集群管理节点用于自动提交Job并监控作业状态的服务" style="text;html=1;align=center;verticalAlign=middle;whiteSpace=wrap;rounded=0;" parent="1" vertex="1">
          <mxGeometry x="660" y="100" width="120" height="30" as="geometry" />
        </mxCell>
        <mxCell id="FGaTPld4qj9GWFZ1uLBO-12" value="&lt;h3 style=&quot;box-sizing: border-box; margin: 1em 0px; font-weight: bold; -webkit-tap-highlight-color: transparent; font-size: 1.2em; color: rgb(0, 0, 0); font-style: normal; font-variant-ligatures: normal; font-variant-caps: normal; letter-spacing: normal; orphans: 2; text-align: start; text-indent: 0px; text-transform: none; widows: 2; word-spacing: 0px; -webkit-text-stroke-width: 0px; white-space: normal; background-color: rgb(255, 255, 255); text-decoration-thickness: initial; text-decoration-style: initial; text-decoration-color: initial;&quot;&gt;&lt;font face=&quot;Helvetica&quot;&gt;Backend新增API&lt;/font&gt;&lt;/h3&gt;&lt;h3 style=&quot;box-sizing: border-box; margin: 1em 0px; font-weight: bold; -webkit-tap-highlight-color: transparent; font-size: 1.2em; color: rgb(0, 0, 0); font-style: normal; font-variant-ligatures: normal; font-variant-caps: normal; letter-spacing: normal; orphans: 2; text-align: start; text-indent: 0px; text-transform: none; widows: 2; word-spacing: 0px; -webkit-text-stroke-width: 0px; white-space: normal; background-color: rgb(255, 255, 255); text-decoration-thickness: initial; text-decoration-style: initial; text-decoration-color: initial;&quot;&gt;&lt;font face=&quot;Helvetica&quot;&gt;图像入库Pipeline流程管理API&lt;/font&gt;&lt;/h3&gt;&lt;ul style=&quot;box-sizing: border-box; margin: 1em 0px; font-weight: 400; -webkit-tap-highlight-color: transparent; list-style: initial; padding-left: 1.5em; color: rgb(0, 0, 0); font-size: 14px; font-style: normal; font-variant-ligatures: normal; font-variant-caps: normal; letter-spacing: normal; orphans: 2; text-align: start; text-indent: 0px; text-transform: none; widows: 2; word-spacing: 0px; -webkit-text-stroke-width: 0px; white-space: normal; background-color: rgb(255, 255, 255); text-decoration-thickness: initial; text-decoration-style: initial; text-decoration-color: initial;&quot;&gt;&lt;li style=&quot;box-sizing: border-box; margin: 0px 0px 0.5em; font-weight: normal; -webkit-tap-highlight-color: transparent;&quot;&gt;&lt;font face=&quot;Helvetica&quot;&gt;&lt;strong style=&quot;box-sizing: border-box; margin: 0px; font-weight: bold; -webkit-tap-highlight-color: transparent;&quot;&gt;POST /api/pipeline/create&lt;/strong&gt;&lt;span&gt;&amp;nbsp;&lt;/span&gt;- 创建新的图像处理流程&lt;/font&gt;&lt;/li&gt;&lt;li style=&quot;box-sizing: border-box; margin: 0px 0px 0.5em; font-weight: normal; -webkit-tap-highlight-color: transparent;&quot;&gt;&lt;font face=&quot;Helvetica&quot;&gt;&lt;strong style=&quot;box-sizing: border-box; margin: 0px; font-weight: bold; -webkit-tap-highlight-color: transparent;&quot;&gt;GET /api/pipeline/{pipeline_id}&lt;/strong&gt;&lt;span&gt;&amp;nbsp;&lt;/span&gt;- 获取单个流程的详细信息和状态摘要&lt;/font&gt;&lt;/li&gt;&lt;li style=&quot;box-sizing: border-box; margin: 0px 0px 0.5em; font-weight: normal; -webkit-tap-highlight-color: transparent;&quot;&gt;&lt;font face=&quot;Helvetica&quot;&gt;&lt;strong style=&quot;box-sizing: border-box; margin: 0px; font-weight: bold; -webkit-tap-highlight-color: transparent;&quot;&gt;GET /api/pipelines&lt;/strong&gt;&lt;span&gt;&amp;nbsp;&lt;/span&gt;- 获取流程列表，支持分页和多种过滤条件&lt;/font&gt;&lt;/li&gt;&lt;li style=&quot;box-sizing: border-box; margin: 0px 0px 0.5em; font-weight: normal; -webkit-tap-highlight-color: transparent;&quot;&gt;&lt;font face=&quot;Helvetica&quot;&gt;&lt;strong style=&quot;box-sizing: border-box; margin: 0px; font-weight: bold; -webkit-tap-highlight-color: transparent;&quot;&gt;PUT /api/pipeline/{pipeline_id}/emails&lt;/strong&gt;&lt;span&gt;&amp;nbsp;&lt;/span&gt;- 更新流程通知邮箱列表&lt;/font&gt;&lt;/li&gt;&lt;li style=&quot;box-sizing: border-box; margin: 0px 0px 0.5em; font-weight: normal; -webkit-tap-highlight-color: transparent;&quot;&gt;&lt;font face=&quot;Helvetica&quot;&gt;&lt;strong style=&quot;box-sizing: border-box; margin: 0px; font-weight: bold; -webkit-tap-highlight-color: transparent;&quot;&gt;DELETE /api/pipeline/{pipeline_id}&lt;/strong&gt;&lt;span&gt;&amp;nbsp;&lt;/span&gt;- 删除图像处理流程&lt;/font&gt;&lt;/li&gt;&lt;li style=&quot;box-sizing: border-box; margin: 0px 0px 0.5em; font-weight: normal; -webkit-tap-highlight-color: transparent;&quot;&gt;&lt;font face=&quot;Helvetica&quot;&gt;&lt;strong style=&quot;box-sizing: border-box; margin: 0px; font-weight: bold; -webkit-tap-highlight-color: transparent;&quot;&gt;GET /api/pipelines/stats&lt;/strong&gt;&amp;nbsp;- 获取所有流程的统计信息&lt;/font&gt;&lt;/li&gt;&lt;/ul&gt;" style="text;whiteSpace=wrap;html=1;" parent="1" vertex="1">
          <mxGeometry x="60" y="290" width="490" height="220" as="geometry" />
        </mxCell>
        <mxCell id="FGaTPld4qj9GWFZ1uLBO-13" value="&lt;h3 style=&quot;box-sizing: border-box; margin: 1em 0px; font-weight: bold; -webkit-tap-highlight-color: transparent; font-size: 1.2em; color: rgb(0, 0, 0); font-style: normal; font-variant-ligatures: normal; font-variant-caps: normal; letter-spacing: normal; orphans: 2; text-align: start; text-indent: 0px; text-transform: none; widows: 2; word-spacing: 0px; -webkit-text-stroke-width: 0px; white-space: normal; background-color: rgb(255, 255, 255); text-decoration-thickness: initial; text-decoration-style: initial; text-decoration-color: initial;&quot;&gt;&lt;font face=&quot;Helvetica&quot;&gt;入库每个步骤管理API&lt;/font&gt;&lt;/h3&gt;&lt;ul style=&quot;box-sizing: border-box; margin: 1em 0px; font-weight: 400; -webkit-tap-highlight-color: transparent; list-style: initial; padding-left: 1.5em; color: rgb(0, 0, 0); font-size: 14px; font-style: normal; font-variant-ligatures: normal; font-variant-caps: normal; letter-spacing: normal; orphans: 2; text-align: start; text-indent: 0px; text-transform: none; widows: 2; word-spacing: 0px; -webkit-text-stroke-width: 0px; white-space: normal; background-color: rgb(255, 255, 255); text-decoration-thickness: initial; text-decoration-style: initial; text-decoration-color: initial;&quot;&gt;&lt;li style=&quot;box-sizing: border-box; margin: 0px 0px 0.5em; font-weight: normal; -webkit-tap-highlight-color: transparent;&quot;&gt;&lt;font face=&quot;Helvetica&quot;&gt;&lt;strong style=&quot;box-sizing: border-box; margin: 0px; font-weight: bold; -webkit-tap-highlight-color: transparent;&quot;&gt;PUT /api/pipeline/{pipeline_id}/step/{step_name}&lt;/strong&gt;&lt;span&gt;&amp;nbsp;&lt;/span&gt;- 更新处理步骤状态&lt;/font&gt;&lt;/li&gt;&lt;li style=&quot;box-sizing: border-box; margin: 0px 0px 0.5em; font-weight: normal; -webkit-tap-highlight-color: transparent;&quot;&gt;&lt;font face=&quot;Helvetica&quot;&gt;&lt;strong style=&quot;box-sizing: border-box; margin: 0px; font-weight: bold; -webkit-tap-highlight-color: transparent;&quot;&gt;POST /api/pipeline/{pipeline_id}/step/{step_name}/start&lt;/strong&gt;&lt;span&gt;&amp;nbsp;&lt;/span&gt;- 开始执行处理步骤&lt;/font&gt;&lt;/li&gt;&lt;li style=&quot;box-sizing: border-box; margin: 0px 0px 0.5em; font-weight: normal; -webkit-tap-highlight-color: transparent;&quot;&gt;&lt;font face=&quot;Helvetica&quot;&gt;&lt;strong style=&quot;box-sizing: border-box; margin: 0px; font-weight: bold; -webkit-tap-highlight-color: transparent;&quot;&gt;POST /api/pipeline/{pipeline_id}/step/{step_name}/complete&lt;/strong&gt;&lt;span&gt;&amp;nbsp;&lt;/span&gt;- 标记步骤为已完成&lt;/font&gt;&lt;/li&gt;&lt;li style=&quot;box-sizing: border-box; margin: 0px 0px 0.5em; font-weight: normal; -webkit-tap-highlight-color: transparent;&quot;&gt;&lt;font face=&quot;Helvetica&quot;&gt;&lt;strong style=&quot;box-sizing: border-box; margin: 0px; font-weight: bold; -webkit-tap-highlight-color: transparent;&quot;&gt;POST /api/pipeline/{pipeline_id}/step/{step_name}/fail&lt;/strong&gt;&lt;span&gt;&amp;nbsp;&lt;/span&gt;- 标记步骤为失败&lt;/font&gt;&lt;/li&gt;&lt;li style=&quot;box-sizing: border-box; margin: 0px 0px 0.5em; font-weight: normal; -webkit-tap-highlight-color: transparent;&quot;&gt;&lt;font face=&quot;Helvetica&quot;&gt;&lt;strong style=&quot;box-sizing: border-box; margin: 0px; font-weight: bold; -webkit-tap-highlight-color: transparent;&quot;&gt;POST /api/pipeline/{pipeline_id}/step/{step_name}/retry&lt;/strong&gt;&amp;nbsp;- 重新启动失败的步骤&lt;/font&gt;&lt;/li&gt;&lt;/ul&gt;" style="text;whiteSpace=wrap;html=1;" parent="1" vertex="1">
          <mxGeometry x="60" y="510" width="560" height="230" as="geometry" />
        </mxCell>
        <mxCell id="FGaTPld4qj9GWFZ1uLBO-14" value="&lt;h3 style=&quot;box-sizing: border-box; margin: 1em 0px; font-weight: bold; -webkit-tap-highlight-color: transparent; font-size: 1.2em; color: rgb(0, 0, 0); font-style: normal; font-variant-ligatures: normal; font-variant-caps: normal; letter-spacing: normal; orphans: 2; text-align: start; text-indent: 0px; text-transform: none; widows: 2; word-spacing: 0px; -webkit-text-stroke-width: 0px; white-space: normal; background-color: rgb(255, 255, 255); text-decoration-thickness: initial; text-decoration-style: initial; text-decoration-color: initial;&quot;&gt;&lt;font face=&quot;Helvetica&quot;&gt;日志和通知&lt;/font&gt;&lt;/h3&gt;&lt;ul style=&quot;box-sizing: border-box; margin: 1em 0px; font-weight: 400; -webkit-tap-highlight-color: transparent; list-style: initial; padding-left: 1.5em; color: rgb(0, 0, 0); font-size: 14px; font-style: normal; font-variant-ligatures: normal; font-variant-caps: normal; letter-spacing: normal; orphans: 2; text-align: start; text-indent: 0px; text-transform: none; widows: 2; word-spacing: 0px; -webkit-text-stroke-width: 0px; white-space: normal; background-color: rgb(255, 255, 255); text-decoration-thickness: initial; text-decoration-style: initial; text-decoration-color: initial;&quot;&gt;&lt;li style=&quot;box-sizing: border-box; margin: 0px 0px 0.5em; font-weight: normal; -webkit-tap-highlight-color: transparent;&quot;&gt;&lt;font face=&quot;Helvetica&quot;&gt;&lt;strong style=&quot;box-sizing: border-box; margin: 0px; font-weight: bold; -webkit-tap-highlight-color: transparent;&quot;&gt;GET /api/pipeline/{pipeline_id}/logs&lt;/strong&gt;&amp;nbsp;- 获取流程处理日志&lt;/font&gt;&lt;/li&gt;&lt;/ul&gt;" style="text;whiteSpace=wrap;html=1;" parent="1" vertex="1">
          <mxGeometry x="60" y="670" width="420" height="90" as="geometry" />
        </mxCell>
        <mxCell id="FGaTPld4qj9GWFZ1uLBO-15" value="&lt;h3 style=&quot;box-sizing: border-box; margin: 1em 0px; font-weight: bold; -webkit-tap-highlight-color: transparent; font-size: 1.2em; color: rgb(0, 0, 0); font-style: normal; font-variant-ligatures: normal; font-variant-caps: normal; letter-spacing: normal; orphans: 2; text-align: start; text-indent: 0px; text-transform: none; widows: 2; word-spacing: 0px; -webkit-text-stroke-width: 0px; white-space: normal; background-color: rgb(255, 255, 255); text-decoration-thickness: initial; text-decoration-style: initial; text-decoration-color: initial;&quot;&gt;&lt;font face=&quot;Helvetica&quot;&gt;Worker状态管理&lt;/font&gt;&lt;/h3&gt;&lt;ul style=&quot;box-sizing: border-box; margin: 1em 0px; font-weight: 400; -webkit-tap-highlight-color: transparent; list-style: initial; padding-left: 1.5em; color: rgb(0, 0, 0); font-size: 14px; font-style: normal; font-variant-ligatures: normal; font-variant-caps: normal; letter-spacing: normal; orphans: 2; text-align: start; text-indent: 0px; text-transform: none; widows: 2; word-spacing: 0px; -webkit-text-stroke-width: 0px; white-space: normal; background-color: rgb(255, 255, 255); text-decoration-thickness: initial; text-decoration-style: initial; text-decoration-color: initial;&quot;&gt;&lt;li style=&quot;box-sizing: border-box; margin: 0px 0px 0.5em; font-weight: normal; -webkit-tap-highlight-color: transparent;&quot;&gt;&lt;font face=&quot;Helvetica&quot;&gt;&lt;strong style=&quot;box-sizing: border-box; margin: 0px; font-weight: bold; -webkit-tap-highlight-color: transparent;&quot;&gt;POST /api/worker/heartbeat&lt;/strong&gt;&lt;span&gt;&amp;nbsp;&lt;/span&gt;- 接收Worker心跳信息&lt;/font&gt;&lt;/li&gt;&lt;li style=&quot;box-sizing: border-box; margin: 0px 0px 0.5em; font-weight: normal; -webkit-tap-highlight-color: transparent;&quot;&gt;&lt;font face=&quot;Helvetica&quot;&gt;&lt;strong style=&quot;box-sizing: border-box; margin: 0px; font-weight: bold; -webkit-tap-highlight-color: transparent;&quot;&gt;GET /api/workers/status&lt;/strong&gt;&lt;span&gt;&amp;nbsp;&lt;/span&gt;- 获取所有Worker的状态概览&lt;/font&gt;&lt;/li&gt;&lt;li style=&quot;box-sizing: border-box; margin: 0px 0px 0.5em; font-weight: normal; -webkit-tap-highlight-color: transparent;&quot;&gt;&lt;font face=&quot;Helvetica&quot;&gt;&lt;strong style=&quot;box-sizing: border-box; margin: 0px; font-weight: bold; -webkit-tap-highlight-color: transparent;&quot;&gt;GET /api/worker/{worker_id}/status&lt;/strong&gt;&amp;nbsp;- 获取特定Worker的详细状态&lt;/font&gt;&lt;/li&gt;&lt;/ul&gt;" style="text;whiteSpace=wrap;html=1;" parent="1" vertex="1">
          <mxGeometry x="60" y="730" width="470" height="150" as="geometry" />
        </mxCell>
        <mxCell id="FGaTPld4qj9GWFZ1uLBO-18" value="&lt;h3 style=&quot;box-sizing: border-box; margin: 1em 0px; -webkit-tap-highlight-color: transparent; font-size: 1.2em; background-color: rgb(255, 255, 255); color: rgb(0, 0, 0);&quot;&gt;&lt;font face=&quot;Helvetica&quot;&gt;Worker相关API&lt;/font&gt;&lt;/h3&gt;&lt;ul style=&quot;box-sizing: border-box; margin: 1em 0px; -webkit-tap-highlight-color: transparent; list-style: initial; padding-left: 1.5em; font-size: 14px; background-color: rgb(255, 255, 255); color: rgb(0, 0, 0);&quot;&gt;&lt;li style=&quot;box-sizing: border-box; margin: 0px 0px 0.5em; -webkit-tap-highlight-color: transparent;&quot;&gt;&lt;font face=&quot;Helvetica&quot;&gt;&lt;span style=&quot;font-size: 12px; background-color: rgb(236, 236, 236);&quot;&gt;POST /api/worker/start&amp;nbsp;&lt;/span&gt;-&amp;nbsp;&lt;/font&gt;&lt;span style=&quot;font-size: 12px; background-color: rgb(236, 236, 236);&quot;&gt;&amp;nbsp;接收并处理步骤开始请求&lt;/span&gt;&lt;/li&gt;&lt;li style=&quot;box-sizing: border-box; margin: 0px 0px 0.5em; -webkit-tap-highlight-color: transparent;&quot;&gt;&lt;span style=&quot;font-size: 12px; background-color: rgb(236, 236, 236);&quot;&gt;GET /api/worker/status -&amp;nbsp;&lt;/span&gt;&lt;span style=&quot;font-size: 12px; background-color: rgb(236, 236, 236);&quot;&gt;获取Worker当前状态信息&lt;/span&gt;&lt;/li&gt;&lt;li style=&quot;box-sizing: border-box; margin: 0px 0px 0.5em; -webkit-tap-highlight-color: transparent;&quot;&gt;&lt;span style=&quot;font-size: 12px; background-color: rgb(236, 236, 236);&quot;&gt;GET /api/worker/health - Worker存活状态检查接口&amp;nbsp;&lt;/span&gt;&lt;/li&gt;&lt;/ul&gt;" style="text;whiteSpace=wrap;html=1;" parent="1" vertex="1">
          <mxGeometry x="600" y="310" width="300" height="140" as="geometry" />
        </mxCell>
      </root>
    </mxGraphModel>
  </diagram>
</mxfile>
